<?xml version="1.0" standalone="no"?>
<!DOCTYPE svg PUBLIC "-//W3C//DTD SVG 20010904//EN"
 "http://www.w3.org/TR/2001/REC-SVG-20010904/DTD/svg10.dtd">
<svg version="1.0" xmlns="http://www.w3.org/2000/svg"
 width="500.000000pt" height="500.000000pt" viewBox="0 0 500.000000 500.000000"
 preserveAspectRatio="xMidYMid meet">
<metadata>
Created by potrace 1.11, written by Peter Selinger 2001-2013
</metadata>
<g transform="translate(0.000000,500.000000) scale(0.100000,-0.100000)"
fill="#000000" stroke="none">
<path d="M2200 4020 c-72 -9 -122 -25 -193 -63 -61 -32 -81 -55 -71 -82 12
-30 37 -33 153 -17 187 26 367 -5 559 -96 69 -33 99 -32 108 4 16 65 -164 198
-321 237 -79 20 -167 26 -235 17z"/>
<path d="M1053 3912 c-113 -90 -264 -259 -360 -402 -225 -335 -340 -773 -304
-1161 32 -351 124 -620 306 -894 272 -409 698 -695 1185 -796 103 -22 141 -24
360 -24 219 0 257 2 360 24 442 91 840 339 1116 694 35 45 39 47 88 47 260 0
415 138 531 470 20 58 49 152 64 210 16 58 39 137 51 175 61 196 147 551 136
563 -2 2 -7 -12 -11 -30 -16 -83 -78 -324 -85 -333 -4 -5 -24 -59 -45 -120
-20 -60 -43 -124 -51 -142 -8 -17 -14 -37 -14 -45 0 -7 -9 -38 -20 -67 -11
-30 -17 -58 -14 -62 3 -5 0 -9 -5 -9 -6 0 -11 -7 -11 -15 0 -19 -38 -90 -56
-106 -8 -6 -14 -19 -14 -28 0 -13 -2 -13 -9 -2 -5 7 -10 9 -12 4 -2 -5 -21
-19 -41 -32 -21 -12 -38 -28 -38 -34 0 -7 -10 -17 -22 -22 -13 -6 -24 -18 -26
-27 -4 -21 -41 -67 -107 -133 -64 -64 -121 -85 -250 -92 -152 -8 -299 15 -495
80 -36 11 -69 21 -75 22 -15 1 -75 39 -75 48 0 4 -7 7 -15 7 -8 0 -15 6 -15
14 0 7 -9 16 -19 19 -11 2 -55 58 -98 123 -43 66 -93 140 -111 166 -30 43 -50
126 -52 211 0 10 -4 16 -8 13 -4 -2 -12 19 -18 49 -6 33 -6 51 0 48 6 -4 6 1
1 13 -25 61 -27 73 -22 97 12 46 35 60 94 55 98 -8 183 -96 219 -228 39 -143
68 -185 151 -216 98 -38 246 7 341 102 38 37 48 55 58 106 11 53 11 64 -3 87
-23 37 -75 91 -88 91 -5 0 -37 26 -69 57 l-59 57 -81 4 c-52 3 -110 -2 -162
-12 -96 -20 -154 -13 -195 21 -35 29 -54 88 -45 136 7 38 54 86 84 88 10 0 12
3 5 5 -17 8 -76 -23 -91 -46 -19 -30 -40 -150 -35 -192 l5 -38 -47 0 c-38 0
-52 -5 -75 -28 -29 -29 -49 -105 -36 -137 3 -8 1 -15 -4 -15 -5 0 -40 -14 -77
-31 -194 -89 -541 -170 -855 -200 -175 -16 -627 -6 -723 16 -107 24 -171 30
-180 15 -25 -40 8 -177 71 -304 187 -373 539 -566 939 -517 455 56 750 330
866 806 l17 70 -6 -96 c-2 -53 -2 -112 2 -131 5 -28 84 -168 106 -188 3 -3 21
-36 40 -75 69 -137 152 -238 271 -326 71 -53 89 -84 61 -105 -9 -8 -23 -14
-29 -14 -7 0 -13 -4 -13 -8 0 -10 -92 -48 -137 -57 -18 -4 -33 -11 -33 -16 0
-5 -7 -9 -16 -9 -8 0 -22 -6 -29 -14 -8 -7 -33 -16 -57 -20 -24 -4 -72 -17
-108 -30 -60 -23 -137 -39 -185 -41 -11 -1 -54 -7 -95 -14 -90 -16 -540 -10
-635 9 -33 7 -69 13 -80 14 -11 1 -51 11 -90 23 -88 28 -221 63 -260 70 -16 3
-38 14 -48 24 -10 11 -22 19 -28 19 -5 0 -29 9 -51 20 -23 11 -50 20 -60 20
-10 0 -18 6 -18 13 0 8 -17 21 -37 31 -58 25 -164 93 -171 109 -2 4 -10 7 -18
7 -8 0 -14 6 -14 14 0 8 -9 17 -19 21 -22 7 -111 99 -111 115 0 5 -6 10 -12
10 -7 0 -26 18 -42 40 -17 22 -36 40 -43 40 -7 0 -13 5 -13 10 0 6 -18 35 -40
65 -22 30 -40 61 -40 70 0 8 -4 15 -9 15 -5 0 -16 18 -25 40 -9 22 -23 40 -31
40 -9 0 -15 9 -15 24 0 13 -11 48 -25 78 -14 29 -25 64 -25 76 0 13 -6 38 -14
55 -20 45 -33 91 -48 175 -7 39 -16 72 -21 72 -4 0 -8 24 -7 53 0 28 -2 114
-6 189 -9 177 7 312 57 493 11 40 17 56 38 108 6 16 9 33 6 38 -4 5 -1 9 4 9
6 0 11 9 11 20 0 11 5 20 10 20 6 0 10 4 10 9 0 23 64 150 73 144 6 -4 8 3 4
16 -3 14 0 24 9 28 8 3 14 11 14 19 0 8 4 14 10 14 5 0 16 16 24 35 8 19 20
35 25 35 6 0 8 7 5 15 -4 9 0 15 9 15 9 0 19 5 23 12 5 7 3 8 -7 3 -18 -11 20
35 44 53 9 7 17 19 17 25 0 14 161 181 206 215 16 12 26 22 22 22 -3 0 -28
-17 -55 -38z m2313 -1498 c19 -9 40 -24 47 -33 7 -9 33 -32 59 -51 94 -71 101
-118 28 -183 -101 -91 -219 -121 -298 -77 -46 26 -52 36 -88 145 -15 44 -38
102 -51 128 -13 27 -23 50 -21 52 2 1 44 9 93 17 122 21 190 21 231 2z m-686
-227 c12 -21 12 -35 2 -83 -6 -31 -19 -65 -29 -76 -56 -62 -443 -190 -708
-234 -262 -44 -838 2 -917 73 -24 22 -52 114 -44 146 3 14 15 28 26 32 10 3
76 1 146 -6 158 -15 582 -6 743 15 259 35 428 69 631 130 63 19 120 34 125 32
6 -1 17 -14 25 -29z m-260 -576 c0 -5 -30 -37 -68 -72 -108 -102 -230 -158
-402 -184 -248 -38 -446 3 -576 120 l-49 44 75 -7 c41 -4 176 -7 300 -6 213 0
233 2 375 32 83 17 191 42 240 56 107 29 105 28 105 17z"/>
<path d="M3465 3863 c33 -32 78 -81 100 -108 22 -27 50 -60 62 -72 12 -12 24
-32 28 -43 3 -11 11 -20 16 -20 5 0 9 -7 9 -15 0 -8 5 -15 10 -15 6 0 10 -7
10 -15 0 -8 4 -15 9 -15 5 0 12 -8 15 -17 3 -10 17 -30 31 -45 14 -16 23 -28
20 -28 -4 0 2 -12 12 -27 17 -25 43 -98 64 -178 4 -16 14 -56 23 -88 18 -64
21 -107 8 -107 -8 0 -72 83 -72 94 0 5 -42 71 -58 91 -4 6 -23 33 -42 60 -76
112 -157 199 -210 224 l-25 12 25 -18 c97 -70 148 -145 289 -428 82 -164 118
-279 127 -411 8 -104 21 -132 54 -114 25 14 34 92 26 233 -23 397 -20 377 -54
454 -18 39 -33 84 -33 100 l-1 28 -7 -28 -6 -28 -19 33 c-45 79 -163 248 -214
308 -67 77 -185 193 -227 222 -16 11 -3 -6 30 -39z"/>
<path d="M1108 3740 c-122 -31 -256 -139 -313 -252 -19 -39 -35 -78 -35 -87 0
-20 19 -41 37 -41 7 0 54 42 105 93 107 106 183 154 306 192 104 32 116 38
119 56 7 34 -15 44 -99 46 -46 1 -100 -2 -120 -7z"/>
<path d="M3368 3563 c6 -2 18 -2 25 0 6 3 1 5 -13 5 -14 0 -19 -2 -12 -5z"/>
<path d="M3418 3563 c7 -3 16 -2 19 1 4 3 -2 6 -13 5 -11 0 -14 -3 -6 -6z"/>
<path d="M3306 3529 c-44 -52 -38 -68 76 -236 68 -99 137 -233 143 -275 2 -13
13 -59 25 -103 33 -119 34 -125 20 -125 -7 0 -56 14 -109 32 -81 26 -112 32
-196 32 -89 1 -109 -2 -174 -29 -40 -16 -69 -31 -63 -33 6 -2 40 9 74 25 56
25 73 28 163 27 82 -1 113 -6 175 -29 121 -44 166 -72 185 -116 22 -48 35 -50
35 -6 0 99 -51 245 -152 436 -51 99 -124 215 -149 241 -29 29 -59 88 -59 113
0 15 11 37 25 52 14 14 22 25 16 25 -5 0 -21 -14 -35 -31z"/>
<path d="M4100 3426 c0 -2 8 -10 18 -17 15 -13 16 -12 3 4 -13 16 -21 21 -21
13z"/>
<path d="M4160 3349 c0 -4 6 -22 14 -40 8 -19 24 -86 37 -149 20 -99 24 -142
23 -305 -1 -132 2 -182 8 -165 17 42 2 402 -20 500 -15 69 -60 184 -62 159z"/>
<path d="M2125 3316 c-109 -49 -184 -249 -156 -417 23 -138 74 -230 152 -269
46 -24 77 -25 127 -5 68 29 116 93 146 194 24 81 21 234 -5 313 -49 152 -161
230 -264 184z"/>
<path d="M4443 3234 l-28 -25 33 22 c17 13 32 24 32 26 0 8 -11 1 -37 -23z"/>
<path d="M4522 3245 c15 -8 38 -34 52 -58 14 -23 26 -36 26 -28 0 23 -42 79
-68 90 -34 16 -41 13 -10 -4z"/>
<path d="M1084 3136 c-47 -21 -92 -83 -116 -159 -16 -55 -19 -85 -15 -155 6
-104 16 -140 59 -212 56 -92 140 -124 209 -77 109 74 151 283 89 449 -27 73
-90 144 -138 158 -46 12 -50 12 -88 -4z"/>
<path d="M4607 3065 c3 -44 7 -82 9 -84 8 -9 2 125 -6 144 -4 12 -6 -14 -3
-60z"/>
<path d="M4365 2937 c-4 -31 -5 -62 -3 -69 3 -7 8 15 13 50 4 35 5 66 2 68 -3
3 -8 -19 -12 -49z"/>
<path d="M4601 2944 c0 -11 3 -14 6 -6 3 7 2 16 -1 19 -3 4 -6 -2 -5 -13z"/>
<path d="M4597 2913 c-4 -3 -7 -11 -7 -17 0 -6 5 -5 12 2 6 6 9 14 7 17 -3 3
-9 2 -12 -2z"/>
<path d="M4588 2857 c-3 -19 -2 -25 4 -19 6 6 8 18 6 28 -3 14 -5 12 -10 -9z"/>
<path d="M4316 2664 c-4 -20 -5 -38 -2 -41 2 -3 8 11 12 31 3 21 4 39 1 42 -2
3 -8 -11 -11 -32z"/>
<path d="M4216 2559 c-10 -50 -7 -86 7 -98 17 -13 42 4 52 37 9 30 -3 28 -15
-3 -18 -47 -33 -29 -28 35 5 63 -5 81 -16 29z"/>
</g>
</svg>
